<svg width="82" height="81" viewBox="0 0 82 81" fill="none" xmlns="http://www.w3.org/2000/svg">
<path d="M30.75 37.5914H15.6569C16.1331 34.4897 17.2656 31.5192 18.9819 28.8697C20.6983 26.2202 22.9608 23.9499 25.625 22.2039L30.2119 19.1965L27.3931 15.0364L22.8062 18.0437C18.9453 20.56 15.7791 23.9696 13.5888 27.9697C11.3984 31.9699 10.2516 36.437 10.25 40.9746V57.6403C10.25 58.9696 10.79 60.2445 11.7511 61.1845C12.7122 62.1244 14.0158 62.6525 15.375 62.6525H30.75C32.1092 62.6525 33.4128 62.1244 34.3739 61.1845C35.335 60.2445 35.875 58.9696 35.875 57.6403V42.6036C35.875 41.2743 35.335 39.9994 34.3739 39.0594C33.4128 38.1195 32.1092 37.5914 30.75 37.5914Z" fill="#303336"/>
<path d="M66.625 37.5914H51.5319C52.0081 34.4897 53.1406 31.5192 54.8569 28.8697C56.5733 26.2202 58.8358 23.9499 61.5 22.2039L66.0869 19.1965L63.2938 15.0364L58.6812 18.0437C54.8203 20.56 51.6541 23.9696 49.4638 27.9697C47.2734 31.9699 46.1266 36.437 46.125 40.9746V57.6403C46.125 58.9696 46.665 60.2445 47.6261 61.1845C48.5872 62.1244 49.8908 62.6525 51.25 62.6525H66.625C67.9842 62.6525 69.2878 62.1244 70.2489 61.1845C71.21 60.2445 71.75 58.9696 71.75 57.6403V42.6036C71.75 41.2743 71.21 39.9994 70.2489 39.0594C69.2878 38.1195 67.9842 37.5914 66.625 37.5914Z" fill="#303336"/>
</svg>
