<svg width="82" height="81" viewBox="0 0 82 81" fill="none" xmlns="http://www.w3.org/2000/svg">
<path d="M30.75 37.5916H15.6569C16.1331 34.4899 17.2656 31.5194 18.9819 28.8699C20.6983 26.2204 22.9608 23.9502 25.625 22.2041L30.2119 19.1968L27.3931 15.0366L22.8062 18.044C18.9453 20.5603 15.7791 23.9698 13.5888 27.97C11.3984 31.9701 10.2516 36.4372 10.25 40.9749V57.6405C10.25 58.9699 10.79 60.2447 11.7511 61.1847C12.7122 62.1247 14.0158 62.6528 15.375 62.6528H30.75C32.1092 62.6528 33.4128 62.1247 34.3739 61.1847C35.335 60.2447 35.875 58.9699 35.875 57.6405V42.6039C35.875 41.2745 35.335 39.9997 34.3739 39.0597C33.4128 38.1197 32.1092 37.5916 30.75 37.5916Z" fill="#7AB8E1"/>
<path d="M66.625 37.5916H51.5319C52.0081 34.4899 53.1406 31.5194 54.8569 28.8699C56.5733 26.2204 58.8358 23.9502 61.5 22.2041L66.0869 19.1968L63.2938 15.0366L58.6812 18.044C54.8203 20.5603 51.6541 23.9698 49.4638 27.97C47.2734 31.9701 46.1266 36.4372 46.125 40.9749V57.6405C46.125 58.9699 46.665 60.2447 47.6261 61.1847C48.5872 62.1247 49.8908 62.6528 51.25 62.6528H66.625C67.9842 62.6528 69.2878 62.1247 70.2489 61.1847C71.21 60.2447 71.75 58.9699 71.75 57.6405V42.6039C71.75 41.2745 71.21 39.9997 70.2489 39.0597C69.2878 38.1197 67.9842 37.5916 66.625 37.5916Z" fill="#7AB8E1"/>
</svg>
