<svg xmlns="http://www.w3.org/2000/svg" viewBox="0 0 850 850"><defs><style>.cls-1{fill:none;}.cls-2{fill:#f5f5f5;}</style></defs><g id="Layer_2" data-name="Layer 2"><rect class="cls-1" width="850" height="850"/></g><g id="Layer_1" data-name="Layer 1"><path class="cls-2" d="M541.55,503.35a908.52,908.52,0,0,1-233.11,0c-22.07-2.84-37.15-21.26-33.74-39.9q4.8-27.43,9.58-54.87c3.41-18.67,21.37-31.09,40.13-28.68a784,784,0,0,0,201.18,0c18.76-2.41,36.71,10,40.13,28.68q4.78,27.44,9.58,54.87C578.71,482.09,563.63,500.51,541.55,503.35ZM321.74,400.54c-7.63-1-14.74,4.11-15.86,11.51q-4,27.56-8.11,55.11c-1.11,7.4,4.87,14.45,13.35,15.55a887.69,887.69,0,0,0,227.76,0c8.48-1.1,14.46-8.15,13.35-15.55q-4.07-27.56-8.11-55.11c-1.12-7.4-8.22-12.49-15.86-11.51A804.73,804.73,0,0,1,321.74,400.54Z"/><path class="cls-2" d="M716.21,250.38H668.65v-72.5a45,45,0,0,0-45-45H226.33a45,45,0,0,0-45,45v72.5H133.79a32,32,0,0,0-31.92,31.93V436.25a32,32,0,0,0,31.92,31.91h47.56v55.22a45,45,0,0,0,45,45H623.67a45,45,0,0,0,45-45V468.16h47.56a31.94,31.94,0,0,0,31.92-31.91V282.31A32,32,0,0,0,716.21,250.38Zm-582.42,197a11.1,11.1,0,0,1-11.1-11.09V282.31a11.12,11.12,0,0,1,11.1-11.11h47.56V447.34Zm514,76a24.19,24.19,0,0,1-24.16,24.19H226.33a24.2,24.2,0,0,1-24.16-24.19V177.88a24.2,24.2,0,0,1,24.16-24.17H623.67a24.19,24.19,0,0,1,24.16,24.17Zm79.48-87.13a11.1,11.1,0,0,1-11.1,11.09H668.65V271.2h47.56a11.12,11.12,0,0,1,11.1,11.11Z"/><path class="cls-2" d="M716.21,250.38H668.65v-72.5a45,45,0,0,0-45-45H226.33a45,45,0,0,0-45,45v72.5H133.79a32,32,0,0,0-31.92,31.93V436.25a32,32,0,0,0,31.92,31.91h47.56v55.22a45,45,0,0,0,45,45H623.67a45,45,0,0,0,45-45V468.16h47.56a31.94,31.94,0,0,0,31.92-31.91V282.31A32,32,0,0,0,716.21,250.38Zm-582.42,197a11.1,11.1,0,0,1-11.1-11.09V329.86a58.83,58.83,0,0,1,58.66-58.66h0V447.34Zm514,76a24.19,24.19,0,0,1-24.18,24.19H226.33a24.2,24.2,0,0,1-24.16-24.19V334A180.25,180.25,0,0,1,382.42,153.71H623.67a24.19,24.19,0,0,1,24.16,24.17Zm79.48-87.13a11.1,11.1,0,0,1-11.1,11.09H668.65V271.2h47.56a11.12,11.12,0,0,1,11.1,11.11Z"/><path class="cls-2" d="M558.93,196.54H291.07a46.21,46.21,0,0,0-46.2,46.2v42.69a46.2,46.2,0,0,0,46.2,46.2H558.93a46.2,46.2,0,0,0,46.2-46.2V242.74A46.21,46.21,0,0,0,558.93,196.54Zm-180.8,92.77a24.2,24.2,0,0,1-24.2,24.2h-5.26a24.2,24.2,0,0,1-24.2-24.2V238.87a24.2,24.2,0,0,1,24.2-24.2h5.26a24.2,24.2,0,0,1,24.2,24.2Zm147.4,0a24.2,24.2,0,0,1-24.2,24.2h-5.26a24.19,24.19,0,0,1-24.2-24.2V238.87a24.19,24.19,0,0,1,24.2-24.2h5.26a24.2,24.2,0,0,1,24.2,24.2Z"/><path class="cls-2" d="M143.51,624.79h16.81l20.82,62.84,21.08-62.84h16.55L234,714.85H217.39l-9.65-57-19.2,57h-15l-18.94-57-9.91,57H128Z"/><path class="cls-2" d="M238.85,624.79h49.8v16.8H272.09v73.26H254.9V641.59H238.85Z"/><path class="cls-2" d="M301.57,624.79h20.95c11.41,0,19.44,1.38,25.46,7.27,4.52,4.39,7.28,11.17,7.28,18.82,0,11.79-5.9,19.82-17.31,24l21.32,40H340.58l-20.19-38.13h-1.63v38.13H301.57ZM318.76,660h7.9c7.77,0,11.79-3.13,11.79-9.28,0-5.89-4.14-9.16-12.29-9.16h-7.4Z"/><path class="cls-2" d="M373.2,624.79h16.43L428.26,684v-59.2h17.18v90.06H428.89l-38.51-59.08v59.08H373.2Z"/><path class="cls-2" d="M501.27,642.85c-4.89-6.4-9.16-11-16.56-11-7.77,0-12.17,5.52-12.17,11.42,0,4.89,2.89,10,8,13.92,16.94,12.54,29.35,21.2,29.35,35.75,0,12.67-10.66,24.21-25.33,24.21-12.42,0-20.57-6.9-27.22-19.07L465,693.4c5.39,9.91,11.92,14.92,18.81,14.92,9.41,0,16.69-6.89,16.69-15.3,0-9.91-9.28-15.55-29.73-32.11-4.26-3.38-7.65-10.54-7.65-17.31,0-12.42,9.66-21.07,21.82-21.07,11,0,17.69,6.65,23.58,14.67Z"/><path class="cls-2" d="M620.18,669.82c0,26.46-20.7,47.29-47.41,47.29-27.72,0-47.54-21.7-47.54-46.92,0-26.84,20.82-47.66,46.79-47.66C599.36,622.53,620.18,643,620.18,669.82Zm-85.54.37a37.65,37.65,0,0,0,37.88,38.13c21.07,0,38.25-16.05,38.25-38.63a38,38,0,0,0-38.25-38.38C552.7,631.31,534.64,647.11,534.64,670.19Z"/><path class="cls-2" d="M714.89,646.86c-7.9-10.41-19.19-15.55-32.11-15.55-21.32,0-39.26,15.8-39.26,38.76,0,22.33,17.06,38.63,39.76,38.63,12.54,0,23.21-5.14,31.61-14.93l7.15,5.4C712.76,710.83,699.09,717,682.65,717c-30.1,0-48.54-21.2-48.54-47.66s20.57-46.79,48.54-46.79c16.56,0,30.48,6.52,39.39,18.94Z"/></g></svg>