<svg width="500" height="500" viewBox="0 0 500 500" fill="none" xmlns="http://www.w3.org/2000/svg">
<path d="M0 250C0 111.929 111.929 0 250 0V0C388.071 0 500 111.929 500 250V250C500 388.071 388.071 500 250 500V500C111.929 500 0 388.071 0 250V250Z" fill="#F5F5F5"/>
<path d="M369.987 140.11C347.34 129.632 323.432 122.199 298.874 118C295.514 124.071 292.473 130.317 289.765 136.712C263.606 132.729 237.004 132.729 210.844 136.712C208.135 130.318 205.094 124.072 201.735 118C177.161 122.234 153.238 129.685 130.568 140.164C85.5637 207.452 73.3637 273.068 79.4637 337.753C105.82 357.432 135.319 372.397 166.68 382C173.742 372.402 179.991 362.22 185.36 351.562C175.162 347.713 165.318 342.964 155.944 337.37C158.411 335.562 160.824 333.699 163.156 331.89C190.432 344.853 220.203 351.574 250.345 351.574C280.487 351.574 310.258 344.853 337.535 331.89C339.893 333.836 342.306 335.699 344.746 337.37C335.354 342.973 325.493 347.731 315.276 351.589C320.639 362.242 326.888 372.416 333.956 382C365.344 372.436 394.866 357.477 421.227 337.781V337.781C428.384 262.767 409 197.753 369.987 140.11ZM193.087 297.973C176.088 297.973 162.044 282.384 162.044 263.205C162.044 244.027 175.6 228.301 193.032 228.301C210.465 228.301 224.4 244.027 224.102 263.205C223.803 282.384 210.411 297.973 193.087 297.973ZM307.604 297.973C290.578 297.973 276.589 282.384 276.589 263.205C276.589 244.027 290.144 228.301 307.604 228.301C325.064 228.301 338.89 244.027 338.592 263.205C338.294 282.384 324.928 297.973 307.604 297.973Z" fill="#274C77"/>
</svg>
