<svg width="2388" height="2388" viewBox="0 0 2388 2388" fill="none" xmlns="http://www.w3.org/2000/svg">
<circle cx="1194" cy="1194" r="1194" fill="#F5F5F5"/>
<path fill-rule="evenodd" clip-rule="evenodd" d="M482 791C482 735.771 526.772 691 582 691H1814.8C1870.03 691 1914.8 735.772 1914.8 791V1596.85C1914.8 1652.08 1870.03 1696.85 1814.8 1696.85H582C526.771 1696.85 482 1652.08 482 1596.85V791ZM1482.6 1193.9L1740.45 936.055C1759.98 916.529 1759.98 884.871 1740.45 865.344C1720.93 845.818 1689.27 845.818 1669.74 865.344L1377.71 1157.37C1377.31 1157.75 1376.91 1158.14 1376.52 1158.53C1376.12 1158.92 1375.74 1159.32 1375.36 1159.72L1198.4 1336.69L1021.75 1160.04C1021.28 1159.53 1020.8 1159.02 1020.3 1158.53C1019.8 1158.03 1019.3 1157.55 1018.79 1157.08L727.054 865.344C707.528 845.818 675.869 845.818 656.343 865.344C636.817 884.871 636.817 916.529 656.343 936.055L914.203 1193.91L656.343 1451.77C636.817 1471.3 636.817 1502.96 656.343 1522.49C675.869 1542.01 707.528 1542.01 727.054 1522.49L984.914 1264.63L1156.23 1435.94C1167.73 1447.44 1183.44 1452.17 1198.4 1450.12C1213.36 1452.17 1229.07 1447.44 1240.57 1435.94L1411.89 1264.61L1669.76 1522.49C1689.29 1542.01 1720.95 1542.01 1740.47 1522.49C1760 1502.96 1760 1471.3 1740.47 1451.77L1482.6 1193.9Z" fill="#274C77"/>
</svg>
