<svg width="500" height="500" viewBox="0 0 500 500" fill="none" xmlns="http://www.w3.org/2000/svg">
<path d="M0 250C0 111.929 111.929 0 250 0V0C388.071 0 500 111.929 500 250V250C500 388.071 388.071 500 250 500V500C111.929 500 0 388.071 0 250V250Z" fill="#F5F5F5"/>
<path d="M118.029 374.571V199.571H178.229V374.571H118.029ZM148.129 177.871C138.329 177.871 130.396 175.188 124.329 169.821C118.263 164.221 115.229 156.871 115.229 147.771C115.229 138.671 118.263 131.438 124.329 126.071C130.396 120.471 138.329 117.671 148.129 117.671C157.929 117.671 165.863 120.471 171.929 126.071C177.996 131.438 181.029 138.671 181.029 147.771C181.029 156.871 177.996 164.221 171.929 169.821C165.863 175.188 157.929 177.871 148.129 177.871ZM218.86 374.571V199.571H267.86L272.06 220.571H273.46C280.46 213.805 288.393 207.971 297.26 203.071C306.36 197.938 316.86 195.371 328.76 195.371C348.126 195.371 362.01 201.905 370.41 214.971C379.043 227.805 383.36 245.071 383.36 266.771V374.571H323.16V274.471C323.16 263.271 321.76 255.805 318.96 252.071C316.16 248.338 311.726 246.471 305.66 246.471C300.06 246.471 295.393 247.638 291.66 249.971C287.926 252.305 283.726 255.571 279.06 259.771V374.571H218.86Z" fill="#274C77"/>
</svg>
